<svg xmlns="http://www.w3.org/2000/svg" xmlns:svg="http://www.w3.org/2000/svg" style="enable-background:new 6 7 44.69 42.69" id="svg14" x="0" y="0" version="1.1" viewBox="7.03 7.48 42.63 41.73" xml:space="preserve"><metadata id="metadata20"/><style id="style2" type="text/css">.st0{display:none}.st1{display:inline}.st2,.st3{fill:none;stroke:#f49600;stroke-width:4.378;stroke-miterlimit:10}.st3{stroke:#13a538}</style><g id="Layer_1" class="st0"><g id="g6" class="st1"><path id="path4" d="M20.25,9.68c10.29,10.29,10.29,27.04,0,37.34 M14.74,15.19c7.25,7.25,7.25,19.06,0,26.31 M9.22,35.99 c4.22-4.22,4.22-11.06,0-15.29 M36.44,47.01c-10.29-10.29-10.29-27.04,0-37.34 M41.96,41.5c-7.25-7.25-7.25-19.06,0-26.31 M47.47,20.7c-4.22,4.22-4.22,11.06,0,15.29" class="st2"/></g></g><g id="Layer_2"><g id="g11"><path id="path9" d="M20.25,9.68c10.29,10.29,10.29,27.04,0,37.34 M14.74,15.19c7.25,7.25,7.25,19.06,0,26.31 M9.22,35.99 c4.22-4.22,4.22-11.06,0-15.29 M36.44,47.01c-10.29-10.29-10.29-27.04,0-37.34 M41.96,41.5c-7.25-7.25-7.25-19.06,0-26.31 M47.47,20.7c-4.22,4.22-4.22,11.06,0,15.29" class="st3" style="stroke:#fff;stroke-opacity:1;stroke-width:4.378"/></g></g></svg>